<svg width="60" height="20" viewBox="0 0 60 20" fill="none" xmlns="http://www.w3.org/2000/svg">
<mask id="mask0" mask-type="alpha" maskUnits="userSpaceOnUse" x="0" y="0" width="60" height="20">
<path d="M57 0H3C1.34315 0 0 1.34315 0 3V17C0 18.6569 1.34315 20 3 20H57C58.6569 20 60 18.6569 60 17V3C60 1.34315 58.6569 0 57 0Z" fill="white"/>
</mask>
<g mask="url(#mask0)">
<path d="M57 0H3C1.34315 0 0 1.34315 0 3V17C0 18.6569 1.34315 20 3 20H57C58.6569 20 60 18.6569 60 17V3C60 1.34315 58.6569 0 57 0Z" fill="#2B2B2B"/>
<mask id="mask1" mask-type="alpha" maskUnits="userSpaceOnUse" x="0" y="0" width="22" height="20">
<path d="M22 0H0V20H22V0Z" fill="white"/>
</mask>
<g mask="url(#mask1)">
<path d="M22 0H0V20H22V0Z" fill="#F8E81C"/>
<path fill-rule="evenodd" clip-rule="evenodd" d="M0 -3H25V22H0V-3ZM6.41563 10.3823L9.28333 12.5666L8.20729 9.14372L11.0115 6.96038H7.48958L6.41563 3.60309L5.33958 6.96038H1.81875L4.62292 9.14372L3.54583 12.5666L6.41563 10.3823ZM18.0323 12.4593L18.976 13.1771L18.6219 12.0521L19.5448 11.3333H18.3854L18.0323 10.2281L17.6781 11.3333H16.5198L17.4427 12.0521L17.0885 13.1771L18.0323 12.4593ZM14.4094 15.8166L15.026 16.8312L15.1094 15.6531L16.2313 15.325L15.1531 14.9L15.2292 13.7416L14.4948 14.6406L13.4167 14.2156L14.0115 15.2218L13.2698 16.1385L14.4094 15.8166ZM18.3792 7.38226L19.549 7.58226L18.7146 6.74788L19.2 5.68434L18.1708 6.2208L17.3469 5.40413L17.5448 6.54788L16.5177 7.08226L17.6677 7.29268L17.8729 8.45518L18.3792 7.38226ZM15.1781 3.8833L16.3385 3.64893L15.2604 3.17184L15.3302 2.00518L14.5646 2.87497L13.501 2.41143L14.0979 3.40726L13.3333 4.27601L14.4812 4.05726L15.0938 5.06663L15.1781 3.8833Z" fill="#D0011B"/>
</g>
</g>
<rect width="60" height="20" rx="3" fill="url(#paint0_linear)"/>
<path d="M35.432 11.148V7.968H38.876V11.148H35.432ZM31.076 11.148V7.968H34.508V11.148H31.076ZM35.432 7.092V4.956H34.508V7.092H30.2V12.768H31.076V12.024H34.508V15.912H35.432V12.024H38.876V12.708H39.788V7.092H35.432ZM47.936 6.732C47.768 6.228 47.36 5.46 47 4.896L46.076 5.16C46.436 5.748 46.82 6.552 46.964 7.044L47.936 6.732ZM49.508 7.944C48.908 9.564 48.104 10.884 47.036 11.964C45.908 10.836 45.044 9.468 44.42 7.944H49.508ZM52.4 7.944V7.068H41.648V7.944H43.496C44.192 9.756 45.14 11.316 46.376 12.588C45.068 13.692 43.46 14.508 41.48 15.072C41.66 15.276 41.924 15.684 42.032 15.9C44.024 15.264 45.68 14.4 47.024 13.224C48.356 14.424 49.988 15.3 51.944 15.852C52.088 15.6 52.34 15.228 52.556 15.024C50.648 14.556 49.028 13.704 47.708 12.588C48.908 11.352 49.832 9.84 50.516 7.944H52.4Z" fill="#FDFDFD"/>
<defs>
<linearGradient id="paint0_linear" x1="28" y1="-1.92324e-06" x2="28" y2="20" gradientUnits="userSpaceOnUse">
<stop stop-color="#EEEEEE" stop-opacity="0.1"/>
<stop offset="1" stop-opacity="0.1"/>
</linearGradient>
</defs>
</svg>
