<svg width="71" height="20" viewBox="0 0 71 20" fill="none" xmlns="http://www.w3.org/2000/svg">
<mask id="mask0" mask-type="alpha" maskUnits="userSpaceOnUse" x="0" y="0" width="71" height="20">
<path d="M68 0H3C1.34315 0 0 1.34315 0 3V17C0 18.6569 1.34315 20 3 20H68C69.6569 20 71 18.6569 71 17V3C71 1.34315 69.6569 0 68 0Z" fill="white"/>
</mask>
<g mask="url(#mask0)">
<path d="M68 0H3C1.34315 0 0 1.34315 0 3V17C0 18.6569 1.34315 20 3 20H68C69.6569 20 71 18.6569 71 17V3C71 1.34315 69.6569 0 68 0Z" fill="#1056A7"/>
<mask id="mask1" mask-type="alpha" maskUnits="userSpaceOnUse" x="0" y="0" width="22" height="20">
<path d="M22 0H0V20H22V0Z" fill="white"/>
</mask>
<g mask="url(#mask1)">
<path d="M22 0H0V20H22V0Z" fill="#CB0000"/>
<mask id="mask2" mask-type="alpha" maskUnits="userSpaceOnUse" x="-6" y="0" width="39" height="20">
<path d="M28 0H-1C-3.76142 0 -6 2.23858 -6 5V15C-6 17.7614 -3.76142 20 -1 20H28C30.7614 20 33 17.7614 33 15V5C33 2.23858 30.7614 0 28 0Z" fill="white"/>
</mask>
<g mask="url(#mask2)">
<path d="M28 0H-1C-3.76142 0 -6 2.23858 -6 5V15C-6 17.7614 -3.76142 20 -1 20H28C30.7614 20 33 17.7614 33 15V5C33 2.23858 30.7614 0 28 0Z" fill="#2F80B7"/>
<path fill-rule="evenodd" clip-rule="evenodd" d="M12.2794 8.59339L28.3094 0.559131L29.4249 0L30.5364 2.2449L29.4208 2.80403L15.0747 9.99436L29.4433 17.196L30.5589 17.7551L29.4475 20L28.3319 19.4409L12.2794 11.3953L-3.77301 19.4409L-4.88858 20L-6 17.7551L-4.88442 17.196L9.48422 9.99436L-4.86192 2.80403L-5.9775 2.2449L-4.86608 0L-3.7505 0.559131L12.2794 8.59339Z" fill="#BE3B31" stroke="#EDF1F2"/>
<path d="M10.1269 9.10601V0H12.1269V9.10601H28.2353V11.106H12.1269V20H10.1269V11.106H-5V9.10601H10.1269Z" fill="#BE3B31"/>
<path d="M10.1269 9.10601V0H12.1269V9.10601H28.2353V11.106H12.1269V20H10.1269V11.106H-5V9.10601H10.1269Z" stroke="#EDF1F2" stroke-width="2"/>
</g>
</g>
</g>
<rect width="71" height="20" rx="3" fill="url(#paint0_linear)"/>
<path d="M27.3094 15H32.5174V14.052H28.4254V10.848H31.7614V9.9H28.4254V7.14H32.3854V6.192H27.3094V15ZM34.2681 15H35.3601V10.272C36.0201 9.612 36.4761 9.276 37.1481 9.276C38.0121 9.276 38.3841 9.792 38.3841 11.016V15H39.4761V10.872C39.4761 9.204 38.8521 8.316 37.4841 8.316C36.5961 8.316 35.9241 8.808 35.3001 9.42H35.2641L35.1681 8.484H34.2681V15ZM43.8 18C45.816 18 47.1 16.956 47.1 15.744C47.1 14.676 46.332 14.196 44.82 14.196H43.548C42.672 14.196 42.408 13.908 42.408 13.488C42.408 13.128 42.588 12.912 42.828 12.708C43.116 12.852 43.476 12.936 43.8 12.936C45.12 12.936 46.176 12.06 46.176 10.668C46.176 10.104 45.96 9.624 45.648 9.324H46.98V8.484H44.712C44.484 8.4 44.16 8.316 43.8 8.316C42.48 8.316 41.352 9.216 41.352 10.644C41.352 11.424 41.772 12.048 42.204 12.396V12.444C41.868 12.684 41.472 13.116 41.472 13.656C41.472 14.172 41.724 14.52 42.072 14.724V14.772C41.46 15.168 41.112 15.696 41.112 16.248C41.112 17.376 42.204 18 43.8 18ZM43.8 12.192C43.044 12.192 42.408 11.592 42.408 10.644C42.408 9.684 43.032 9.12 43.8 9.12C44.568 9.12 45.192 9.696 45.192 10.644C45.192 11.592 44.544 12.192 43.8 12.192ZM43.956 17.256C42.78 17.256 42.072 16.8 42.072 16.104C42.072 15.72 42.264 15.336 42.732 15C43.02 15.072 43.332 15.108 43.572 15.108H44.7C45.564 15.108 46.032 15.312 46.032 15.912C46.032 16.596 45.204 17.256 43.956 17.256ZM49.5177 15.156C49.8177 15.156 49.9977 15.12 50.1537 15.06L49.9977 14.22C49.8777 14.244 49.8297 14.244 49.7697 14.244C49.6017 14.244 49.4577 14.112 49.4577 13.776V5.448H48.3657V13.704C48.3657 14.628 48.7017 15.156 49.5177 15.156ZM51.7876 15H52.8796V8.484H51.7876V15ZM52.3396 7.14C52.7716 7.14 53.0716 6.852 53.0716 6.408C53.0716 5.988 52.7716 5.7 52.3396 5.7C51.9076 5.7 51.6076 5.988 51.6076 6.408C51.6076 6.852 51.9076 7.14 52.3396 7.14ZM56.7963 15.156C58.3323 15.156 59.1723 14.28 59.1723 13.224C59.1723 11.988 58.1283 11.604 57.1803 11.244C56.4483 10.968 55.7763 10.74 55.7763 10.116C55.7763 9.612 56.1603 9.18 56.9883 9.18C57.5643 9.18 58.0203 9.42 58.4643 9.756L58.9923 9.048C58.4883 8.652 57.7803 8.316 56.9763 8.316C55.5603 8.316 54.7203 9.132 54.7203 10.164C54.7203 11.268 55.7163 11.712 56.6283 12.048C57.3483 12.324 58.1163 12.612 58.1163 13.284C58.1163 13.848 57.6963 14.304 56.8323 14.304C56.0523 14.304 55.4643 13.992 54.9003 13.536L54.3603 14.256C54.9843 14.772 55.8723 15.156 56.7963 15.156ZM60.7056 15H61.7976V10.272C62.4576 9.612 62.9136 9.276 63.5856 9.276C64.4496 9.276 64.8216 9.792 64.8216 11.016V15H65.9136V10.872C65.9136 9.204 65.2896 8.316 63.9216 8.316C63.0336 8.316 62.3616 8.808 61.7616 9.408L61.7976 8.064V5.448H60.7056V15Z" fill="#FDFDFD"/>
<defs>
<linearGradient id="paint0_linear" x1="33.1333" y1="-1.92324e-06" x2="33.1333" y2="20" gradientUnits="userSpaceOnUse">
<stop stop-color="#EEEEEE" stop-opacity="0.1"/>
<stop offset="1" stop-opacity="0.1"/>
</linearGradient>
</defs>
</svg>
